<svg id="Primaer_logo" data-name="Primaer logo" xmlns="http://www.w3.org/2000/svg" viewBox="0 0 800 800"><defs><style>.cls-1{fill:#ff001e;}.cls-2{fill:#fff;}</style></defs><title>DR1_logo_primaer_RGB</title><g id="DR1"><path class="cls-1" d="M0,0V800H800V0Z"/></g><g id="Koncernlogo"><rect y="560" width="800" height="240"/><path class="cls-2" d="M319.27,618.67H148.07a2.07,2.07,0,0,0-2.28,2.27v115.3a2.09,2.09,0,0,0,2.28,2.29h171.2c50.29,0,75.67-16.71,75.67-60.31C394.94,634.92,369.56,618.67,319.27,618.67ZM274.94,716.5H221.31c-1.52,0-1.83-.61-1.83-1.83V642.51c0-1.2.31-1.82,1.83-1.82h53.63c31.89,0,44.66,9.11,44.66,37.83S306.83,716.5,274.94,716.5Z"/><path class="cls-2" d="M665,733.67l-49.52-34.94c-1.22-.92-2-1.37-2-2s.46-.92,1.53-.92c25,0,44.5-11.69,44.5-37.51S642.86,618.67,612,618.67H424.4a2.06,2.06,0,0,0-2.27,2.27v115.3a2.08,2.08,0,0,0,2.27,2.29h69a2.08,2.08,0,0,0,2.28-2.29V708.9c0-1.37.46-1.82,1.83-1.82h39.73c2,0,2.73.15,4.1,1.22l34.49,28.56a6.6,6.6,0,0,0,4.85,1.67h85.84q1.83,0,1.83-1.38C668.39,735.94,666.26,734.58,665,733.67Zm-107.54-48H497.65c-1.37,0-1.83-.46-1.83-1.82V642.51c0-1.36.46-1.82,1.83-1.82H557.5c20.06,0,28.56,5.48,28.56,22C586.06,679.43,577.56,685.66,557.5,685.66Z"/></g><g id="_1" data-name="1"><path class="cls-2" d="M530,355.72v74.81H285V355.72H368.3V191.3h-65V121.42H452.07v234.3Z"/></g></svg>