<?xml version="1.0" encoding="utf-8"?>
<!-- Generator: Adobe Illustrator 24.3.0, SVG Export Plug-In . SVG Version: 6.00 Build 0)  -->
<svg version="1.1" id="Primaer_logo" xmlns="http://www.w3.org/2000/svg" xmlns:xlink="http://www.w3.org/1999/xlink" x="0px"
	 y="0px" viewBox="0 0 800 800" style="enable-background:new 0 0 800 800;" xml:space="preserve">
<style type="text/css">
	.st0{fill:#50FF50;}
	.st1{fill:#FFFFFF;}
</style>
<g id="DRP3">
	<rect y="0" class="st0" width="800" height="800"/>
</g>
<g id="Koncernlogo">
	<rect y="560" width="800" height="240"/>
	<path class="st1" d="M319.3,618.7H148.1c-1.1-0.1-2.2,0.7-2.3,1.8c0,0.1,0,0.3,0,0.4v115.3c-0.1,1.1,0.7,2.2,1.9,2.3
		c0.1,0,0.3,0,0.4,0h171.2c50.3,0,75.7-16.7,75.7-60.3C394.9,634.9,369.6,618.7,319.3,618.7z M274.9,716.5h-53.6
		c-1.5,0-1.8-0.6-1.8-1.8v-72.2c0-1.2,0.3-1.8,1.8-1.8h53.6c31.9,0,44.7,9.1,44.7,37.8S306.8,716.5,274.9,716.5z"/>
	<path class="st1" d="M665,733.7l-49.5-34.9c-1.2-0.9-2-1.4-2-2s0.5-0.9,1.5-0.9c25,0,44.5-11.7,44.5-37.5s-16.7-39.6-47.5-39.6
		H424.4c-1.1-0.1-2.1,0.7-2.3,1.8c0,0.1,0,0.3,0,0.4v115.3c-0.1,1.1,0.7,2.2,1.8,2.3c0.1,0,0.3,0,0.4,0h69c1.1,0.1,2.2-0.7,2.3-1.9
		c0-0.1,0-0.3,0-0.4v-27.3c0-1.4,0.5-1.8,1.8-1.8h39.7c2,0,2.7,0.2,4.1,1.2l34.5,28.6c1.3,1.2,3.1,1.8,4.8,1.7h85.8
		c1.2,0,1.8-0.5,1.8-1.4C668.4,735.9,666.3,734.6,665,733.7z M557.5,685.7h-59.8c-1.4,0-1.8-0.5-1.8-1.8v-41.3
		c0-1.4,0.5-1.8,1.8-1.8h59.9c20.1,0,28.6,5.5,28.6,22C586.1,679.4,577.6,685.7,557.5,685.7L557.5,685.7z"/>
</g>
<g id="P3">
	<path d="M404,240.9c0,56.3-40.7,93.7-104.1,93.7h-43.7v70h-69.6V149H300C362.6,149,404,184.9,404,240.9z M333.3,242
		c0-20.4-13.7-31.1-38.5-31.1h-38.5v62.2h38.5C319.6,273.1,333.3,262.7,333.3,242z"/>
	<path d="M631.4,317.5c0,54.1-41.5,91.1-101.8,91.1c-60.7,0-105.9-40-107.4-90.7h68.1c3,19.6,18.5,33,39.2,33
		c21.5,0,34.8-13.7,34.8-33.3c0-20-13.3-33.7-33-33.7c-10.7-0.2-21.1,3.5-29.2,10.4l-29.6-41.8l60.4-43.7H430.7V149h191.5v52.6
		l-55.5,38.9C605.5,246,631.4,275.3,631.4,317.5z"/>
</g>
</svg>
