<svg id="Primaer_logo" data-name="Primaer logo" xmlns="http://www.w3.org/2000/svg" viewBox="0 0 800 800"><defs><style>.cls-1{fill:#7d50c8;}.cls-2{fill:#fff;}</style></defs><title>DRP8_logo_primaer_RGB</title><g id="DRP8"><rect class="cls-1" width="800" height="800"/></g><g id="Koncernlogo"><rect y="560" width="800" height="240"/><path class="cls-2" d="M319.27,618.67H148.07a2.07,2.07,0,0,0-2.28,2.27v115.3a2.09,2.09,0,0,0,2.28,2.29h171.2c50.29,0,75.67-16.71,75.67-60.31C394.94,634.92,369.56,618.67,319.27,618.67ZM274.94,716.5H221.31c-1.52,0-1.83-.61-1.83-1.83V642.51c0-1.2.31-1.82,1.83-1.82h53.63c31.89,0,44.66,9.11,44.66,37.83S306.83,716.5,274.94,716.5Z"/><path class="cls-2" d="M665,733.67l-49.52-34.94c-1.22-.92-2-1.37-2-2s.46-.92,1.53-.92c25,0,44.5-11.69,44.5-37.51S642.86,618.67,612,618.67H424.4a2.06,2.06,0,0,0-2.27,2.27v115.3a2.08,2.08,0,0,0,2.27,2.29h69a2.08,2.08,0,0,0,2.28-2.29V708.9c0-1.37.46-1.82,1.83-1.82h39.73c2,0,2.73.15,4.1,1.22l34.49,28.56a6.6,6.6,0,0,0,4.85,1.67h85.84q1.83,0,1.83-1.38C668.39,735.94,666.26,734.58,665,733.67Zm-107.54-48H497.65c-1.37,0-1.83-.46-1.83-1.82V642.51c0-1.36.46-1.82,1.83-1.82H557.5c20.06,0,28.56,5.48,28.56,22C586.06,679.43,577.56,685.66,557.5,685.66Z"/></g><g id="P8"><path class="cls-2" d="M404.05,240.85c0,56.29-40.74,93.69-104.06,93.69h-43.7v70H186.67V149H300C362.57,149,404.05,184.93,404.05,240.85ZM333.32,242c0-20.37-13.71-31.11-38.52-31.11H256.29v62.22H294.8C319.61,273.07,333.32,262.7,333.32,242Z"/><path class="cls-2" d="M423.31,327.5c0-26.29,14.07-49.25,40.36-59.25a56.72,56.72,0,0,1-30.37-50.73c0-41.48,40.37-72.22,94.44-72.22,54.44,0,94.8,30.74,94.8,72.22,0,20.73-10.37,40.36-30,50.73,26.29,10,40,33,40,59.25,0,48.15-43,81.11-104.8,81.11C466.26,408.61,423.31,375.65,423.31,327.5Zm141.09-4.07c0-18.15-14.81-29.26-36.66-29.26s-36.29,11.11-36.29,29.26c0,18.52,14.44,29.26,36.29,29.26S564.4,342,564.4,323.43ZM558.48,222.7c0-15.92-13-25.18-30.74-25.18s-30.37,9.26-30.37,25.18,12.59,25.18,30.37,25.18S558.48,238.62,558.48,222.7Z"/></g></svg>